<svg width="133" height="38" viewBox="0 0 133 38" fill="none" xmlns="http://www.w3.org/2000/svg">
    <path d="M12.1352 25.92L16.7332 10.796H23.6492L16.1252 32H8.10721L0.583211 10.796H7.53721L12.1352 25.92ZM29.6523 8.592C28.5123 8.592 27.575 8.26266 26.8403 7.604C26.131 6.92 25.7763 6.084 25.7763 5.096C25.7763 4.08267 26.131 3.24667 26.8403 2.588C27.575 1.904 28.5123 1.562 29.6523 1.562C30.767 1.562 31.679 1.904 32.3883 2.588C33.123 3.24667 33.4903 4.08267 33.4903 5.096C33.4903 6.084 33.123 6.92 32.3883 7.604C31.679 8.26266 30.767 8.592 29.6523 8.592ZM32.8823 10.796V32H26.3843V10.796H32.8823ZM49.4094 26.49V32H46.1034C43.7474 32 41.9107 31.43 40.5934 30.29C39.276 29.1247 38.6174 27.2373 38.6174 24.628V16.192H36.0334V10.796H38.6174V5.628H45.1154V10.796H49.3714V16.192H45.1154V24.704C45.1154 25.3373 45.2674 25.7933 45.5714 26.072C45.8754 26.3507 46.382 26.49 47.0914 26.49H49.4094ZM59.5269 14.33C60.2869 13.1647 61.2369 12.2527 62.3769 11.594C63.5169 10.91 64.7835 10.568 66.1769 10.568V17.446H64.3909C62.7695 17.446 61.5535 17.8007 60.7429 18.51C59.9322 19.194 59.5269 20.41 59.5269 22.158V32H53.0289V10.796H59.5269V14.33ZM90.2208 10.796V32H83.7228V29.112C83.0641 30.0493 82.1648 30.8093 81.0248 31.392C79.9101 31.9493 78.6688 32.228 77.3008 32.228C75.6794 32.228 74.2481 31.8733 73.0068 31.164C71.7654 30.4293 70.8028 29.378 70.1188 28.01C69.4348 26.642 69.0928 25.0333 69.0928 23.184V10.796H75.5528V22.31C75.5528 23.7287 75.9201 24.8307 76.6548 25.616C77.3894 26.4013 78.3774 26.794 79.6188 26.794C80.8854 26.794 81.8861 26.4013 82.6208 25.616C83.3554 24.8307 83.7228 23.7287 83.7228 22.31V10.796H90.2208ZM121.944 10.568C124.579 10.568 126.669 11.366 128.214 12.962C129.785 14.558 130.57 16.7747 130.57 19.612V32H124.11V20.486C124.11 19.118 123.743 18.0667 123.008 17.332C122.299 16.572 121.311 16.192 120.044 16.192C118.778 16.192 117.777 16.572 117.042 17.332C116.333 18.0667 115.978 19.118 115.978 20.486V32H109.518V20.486C109.518 19.118 109.151 18.0667 108.416 17.332C107.707 16.572 106.719 16.192 105.452 16.192C104.186 16.192 103.185 16.572 102.45 17.332C101.741 18.0667 101.386 19.118 101.386 20.486V32H94.8882V10.796H101.386V13.456C102.045 12.5693 102.906 11.8727 103.97 11.366C105.034 10.834 106.238 10.568 107.58 10.568C109.176 10.568 110.595 10.91 111.836 11.594C113.103 12.278 114.091 13.2533 114.8 14.52C115.535 13.3547 116.536 12.4047 117.802 11.67C119.069 10.9353 120.45 10.568 121.944 10.568Z" fill="#0A0A0A"/>
    </svg>
    